<?xml version="1.0" standalone="no"?>
<!DOCTYPE svg PUBLIC "-//W3C//DTD SVG 20010904//EN"
 "http://www.w3.org/TR/2001/REC-SVG-20010904/DTD/svg10.dtd">
<svg version="1.0" xmlns="http://www.w3.org/2000/svg"
 width="534.000000pt" height="465.000000pt" viewBox="0 0 534.000000 465.000000"
 preserveAspectRatio="xMidYMid meet">
<metadata>
Created by potrace 1.12, written by Peter Selinger 2001-2015
</metadata>
<g transform="translate(-33.000000,488.000000) scale(0.100000,-0.100000)"
fill="#000000" stroke="none">
<path d="M330 2555 l0 -2325 565 0 565 0 0 785 0 785 328 0 327 0 363 363 362
362 0 815 0 815 -363 363 -362 362 -893 0 -892 0 0 -2325z m1340 775 l0 -620
-105 0 -105 0 0 620 0 620 105 0 105 0 0 -620z"/>
<path d="M3392 4517 l-362 -362 0 -1600 0 -1600 363 -363 362 -362 595 0 595
0 363 363 362 362 0 638 0 637 -595 0 -595 0 -2 -532 -3 -533 -95 0 -95 0 0
1385 0 1385 98 3 97 3 0 -441 0 -440 595 0 595 0 0 548 0 547 -363 363 -362
362 -595 0 -595 0 -363 -363z"/>
</g>
</svg>
