<?xml version="1.0" standalone="no"?>
<!DOCTYPE svg PUBLIC "-//W3C//DTD SVG 20010904//EN"
 "http://www.w3.org/TR/2001/REC-SVG-20010904/DTD/svg10.dtd">
<svg version="1.0" xmlns="http://www.w3.org/2000/svg"
 width="18" height="18" viewBox="0 0 979.355927 979.437328"
 preserveAspectRatio="none">
<metadata>
Created by potrace 1.12, written by Peter Selinger 2001-2015
</metadata>
<g transform="translate(-0.466997,979.570310) scale(0.100000,-0.100000)"
fill="#000000" stroke="none">
<path d="M4565 9790 c-1381 -101 -2633 -755 -3490 -1825 -593 -740 -947 -1607
-1052 -2575 -25 -232 -25 -748 0 -980 88 -812 348 -1544 782 -2205 667 -1015
1695 -1749 2870 -2050 777 -199 1611 -205 2387 -16 1052 256 1987 851 2663
1696 726 907 1102 2026 1072 3185 -8 271 -25 450 -68 710 -213 1270 -947 2434
-2002 3176 -384 270 -876 517 -1317 659 -288 93 -682 175 -1010 210 -172 19
-664 27 -835 15z m574 -470 c894 -52 1717 -351 2421 -879 393 -294 751 -673
1027 -1086 590 -884 841 -1964 703 -3029 -110 -852 -472 -1661 -1039 -2321
-98 -114 -290 -315 -301 -315 -4 0 -10 37 -14 82 -24 299 -152 664 -323 923
-304 461 -827 840 -1432 1040 l-85 28 50 41 c322 267 567 661 659 1059 51 222
63 524 30 757 -65 460 -214 779 -495 1060 -129 130 -207 191 -359 281 -194
116 -415 197 -671 246 -185 35 -530 44 -730 18 -645 -82 -1171 -422 -1448
-935 -87 -162 -151 -364 -194 -615 -18 -108 -22 -168 -22 -350 0 -229 11 -325
55 -499 67 -263 202 -531 376 -746 63 -77 231 -246 292 -292 l34 -26 -59 -16
c-264 -74 -604 -234 -833 -393 -471 -328 -766 -743 -896 -1258 -28 -109 -65
-335 -65 -393 0 -40 -265 255 -444 495 -425 568 -719 1249 -836 1938 -95 558
-88 1087 21 1641 208 1061 819 2025 1699 2680 823 612 1858 923 2879 864z"/>
</g>
</svg>
