<?xml version="1.0" encoding="UTF-8"?>
<svg xmlns="http://www.w3.org/2000/svg" xmlns:xlink="http://www.w3.org/1999/xlink" width="20pt" height="17pt" viewBox="0 0 20 17" version="1.1">
<g id="surface1">
<path style=" stroke:none;fill-rule:nonzero;fill:rgb(0%,0%,0%);fill-opacity:1;" d="M 0 8.503906 L 0 17.007812 L 4.230469 17.007812 L 4.230469 11.265625 L 6.679688 11.265625 L 8.039062 9.9375 L 9.394531 8.613281 L 9.394531 2.652344 L 8.035156 1.324219 L 6.679688 0 L 0 0 Z M 5.015625 5.667969 L 5.015625 7.9375 L 4.230469 7.9375 L 4.230469 3.402344 L 5.015625 3.402344 Z M 5.015625 5.667969 "/>
<path style=" stroke:none;fill-rule:nonzero;fill:rgb(0%,0%,0%);fill-opacity:1;" d="M 11.460938 1.328125 L 10.105469 2.652344 L 10.105469 14.355469 L 11.464844 15.683594 L 12.816406 17.007812 L 17.273438 17.007812 L 18.628906 15.679688 L 19.984375 14.355469 L 19.984375 9.691406 L 15.53125 9.691406 L 15.523438 11.636719 L 15.511719 13.585938 L 14.800781 13.585938 L 14.800781 3.457031 L 15.167969 3.445312 L 15.53125 3.433594 L 15.53125 6.65625 L 19.984375 6.65625 L 19.984375 2.652344 L 18.625 1.324219 L 17.273438 0 L 12.816406 0 Z M 11.460938 1.328125 "/>
</g>
</svg>
