<?xml version="1.0" encoding="UTF-8"?>
<svg xmlns="http://www.w3.org/2000/svg" xmlns:xlink="http://www.w3.org/1999/xlink" width="20pt" height="4pt" viewBox="0 0 20 4" version="1.1">
<g id="surface2">
<path style=" stroke:none;fill-rule:nonzero;fill:rgb(0%,0%,0%);fill-opacity:1;" d="M 19.539062 3.371094 L 19.578125 3.371094 L 19.578125 3.125 L 19.671875 3.125 L 19.671875 3.09375 L 19.449219 3.09375 L 19.449219 3.125 L 19.539062 3.125 Z M 19.539062 3.371094 "/>
<path style=" stroke:none;fill-rule:nonzero;fill:rgb(0%,0%,0%);fill-opacity:1;" d="M 19.746094 3.144531 L 19.824219 3.371094 L 19.863281 3.371094 L 19.941406 3.144531 L 19.941406 3.371094 L 19.972656 3.371094 L 19.972656 3.09375 L 19.925781 3.09375 L 19.84375 3.328125 L 19.761719 3.09375 L 19.707031 3.09375 L 19.707031 3.371094 L 19.746094 3.371094 Z M 19.746094 3.144531 "/>
<path style=" stroke:none;fill-rule:nonzero;fill:rgb(0%,0%,0%);fill-opacity:1;" d="M 13.335938 2.707031 L 13.335938 1.566406 C 13.335938 1.332031 13.449219 1.167969 13.691406 1.167969 L 15.183594 1.167969 C 15.191406 1.167969 15.199219 1.160156 15.199219 1.148438 L 15.199219 0.921875 C 15.199219 0.921875 15.199219 0.917969 15.199219 0.917969 L 13.375 0.917969 C 12.976562 0.964844 12.785156 1.230469 12.785156 1.566406 L 12.785156 2.707031 C 12.785156 2.941406 12.667969 3.109375 12.429688 3.109375 L 10.851562 3.109375 C 10.84375 3.109375 10.835938 3.113281 10.835938 3.125 L 10.835938 3.351562 C 10.835938 3.363281 10.839844 3.371094 10.847656 3.371094 L 12.636719 3.371094 C 13.105469 3.359375 13.335938 3.074219 13.335938 2.707031 Z M 13.335938 2.707031 "/>
<path style=" stroke:none;fill-rule:nonzero;fill:rgb(0%,0%,0%);fill-opacity:1;" d="M 7.199219 3.371094 L 7.726562 3.371094 C 7.730469 3.371094 7.738281 3.363281 7.738281 3.351562 L 7.738281 2.625 C 7.738281 2.390625 7.875 2.230469 8.074219 2.230469 L 10.234375 2.230469 C 10.722656 2.230469 10.957031 1.945312 10.957031 1.566406 C 10.957031 1.230469 10.765625 0.964844 10.367188 0.917969 L 7.191406 0.917969 C 7.191406 0.917969 7.1875 0.921875 7.1875 0.921875 L 7.1875 1.148438 C 7.1875 1.160156 7.195312 1.167969 7.207031 1.167969 L 10.050781 1.167969 C 10.292969 1.167969 10.40625 1.332031 10.40625 1.566406 C 10.40625 1.800781 10.292969 1.964844 10.050781 1.964844 L 7.800781 1.964844 C 7.453125 1.964844 7.1875 2.25 7.1875 2.625 L 7.1875 3.351562 C 7.1875 3.363281 7.191406 3.371094 7.199219 3.371094 Z M 7.199219 3.371094 "/>
<path style=" stroke:none;fill-rule:nonzero;fill:rgb(0%,0%,0%);fill-opacity:1;" d="M 15.191406 3.109375 L 18.058594 3.109375 C 18.066406 3.109375 18.074219 3.113281 18.074219 3.121094 L 18.074219 3.351562 C 18.074219 3.363281 18.082031 3.371094 18.089844 3.371094 L 18.609375 3.371094 C 18.617188 3.371094 18.625 3.363281 18.625 3.351562 L 18.625 3.125 C 18.625 3.117188 18.636719 3.109375 18.644531 3.109375 L 19.15625 3.109375 C 19.167969 3.109375 19.175781 3.101562 19.175781 3.089844 L 19.175781 2.859375 C 19.175781 2.851562 19.167969 2.84375 19.15625 2.84375 L 18.644531 2.84375 C 18.636719 2.84375 18.625 2.835938 18.625 2.828125 L 18.625 1.167969 C 18.625 1.03125 18.574219 0.945312 18.484375 0.917969 L 18.335938 0.917969 C 18.289062 0.929688 18.238281 0.949219 18.183594 0.980469 L 15.097656 2.804688 C 14.976562 2.878906 14.933594 2.957031 14.964844 3.019531 C 14.988281 3.070312 15.058594 3.109375 15.191406 3.109375 Z M 15.640625 2.804688 L 18.03125 1.386719 C 18.046875 1.375 18.078125 1.375 18.078125 1.410156 L 18.078125 2.828125 C 18.078125 2.835938 18.066406 2.84375 18.058594 2.84375 L 15.65625 2.84375 C 15.632812 2.84375 15.625 2.839844 15.621094 2.832031 C 15.617188 2.820312 15.625 2.8125 15.640625 2.804688 Z M 15.640625 2.804688 "/>
<path style=" stroke:none;fill-rule:nonzero;fill:rgb(0%,0%,0%);fill-opacity:1;" d="M 2.003906 0 C 2.234375 0.0429688 2.464844 0.101562 2.691406 0.164062 C 2.824219 0.199219 2.953125 0.238281 3.082031 0.277344 C 3.285156 0.339844 3.488281 0.410156 3.671875 0.511719 C 3.753906 0.5625 3.832031 0.617188 3.898438 0.679688 C 3.972656 0.75 4.03125 0.832031 4.078125 0.917969 C 4.15625 1.078125 4.183594 1.257812 4.191406 1.433594 C 4.195312 1.550781 4.195312 1.664062 4.171875 1.777344 C 4.15625 1.878906 4.121094 1.976562 4.066406 2.058594 C 4.019531 2.136719 3.949219 2.203125 3.867188 2.242188 C 3.789062 2.285156 3.699219 2.304688 3.609375 2.300781 C 3.476562 2.304688 3.34375 2.261719 3.222656 2.207031 C 3.21875 1.820312 3.222656 1.433594 3.222656 1.046875 C 3.222656 0.976562 3.226562 0.90625 3.210938 0.835938 C 3.199219 0.785156 3.179688 0.730469 3.132812 0.695312 C 3.105469 0.667969 3.066406 0.65625 3.03125 0.648438 C 2.992188 0.640625 2.949219 0.65625 2.925781 0.683594 C 2.886719 0.730469 2.878906 0.792969 2.875 0.855469 C 2.875 1.890625 2.875 2.925781 2.875 3.960938 C 2.585938 3.871094 2.292969 3.785156 2.003906 3.695312 C 2.003906 2.464844 2.003906 1.230469 2.003906 0 Z M 2.003906 0 "/>
<path style=" stroke:none;fill-rule:nonzero;fill:rgb(0%,0%,0%);fill-opacity:1;" d="M 0.695312 2.621094 C 1.074219 2.492188 1.453125 2.363281 1.832031 2.234375 C 1.832031 2.375 1.832031 2.519531 1.832031 2.660156 C 1.832031 2.679688 1.835938 2.699219 1.832031 2.71875 C 1.53125 2.820312 1.234375 2.925781 0.933594 3.027344 C 0.890625 3.042969 0.847656 3.058594 0.816406 3.089844 C 0.800781 3.105469 0.789062 3.125 0.796875 3.144531 C 0.808594 3.167969 0.835938 3.183594 0.859375 3.191406 C 0.921875 3.21875 0.996094 3.222656 1.066406 3.226562 C 1.144531 3.222656 1.222656 3.21875 1.296875 3.203125 C 1.351562 3.191406 1.398438 3.175781 1.449219 3.15625 C 1.578125 3.113281 1.703125 3.070312 1.832031 3.023438 C 1.832031 3.144531 1.832031 3.265625 1.832031 3.386719 C 1.832031 3.410156 1.835938 3.433594 1.832031 3.460938 C 1.675781 3.488281 1.515625 3.503906 1.355469 3.507812 C 1.03125 3.515625 0.710938 3.464844 0.40625 3.371094 C 0.304688 3.34375 0.203125 3.304688 0.121094 3.242188 C 0.0742188 3.210938 0.03125 3.167969 0.0117188 3.113281 C -0.00390625 3.070312 -0.00390625 3.015625 0.0195312 2.972656 C 0.0390625 2.929688 0.0742188 2.898438 0.117188 2.871094 C 0.210938 2.808594 0.3125 2.761719 0.417969 2.71875 C 0.507812 2.679688 0.605469 2.652344 0.695312 2.621094 Z M 0.695312 2.621094 "/>
<path style=" stroke:none;fill-rule:nonzero;fill:rgb(0%,0%,0%);fill-opacity:1;" d="M 3.746094 2.457031 C 3.832031 2.449219 3.917969 2.445312 4.003906 2.441406 C 4.289062 2.445312 4.574219 2.476562 4.847656 2.558594 C 4.898438 2.574219 4.953125 2.59375 5.003906 2.613281 C 5.101562 2.644531 5.195312 2.683594 5.269531 2.75 C 5.316406 2.789062 5.355469 2.84375 5.355469 2.90625 C 5.359375 2.953125 5.335938 3.003906 5.300781 3.039062 C 5.238281 3.109375 5.152344 3.15625 5.066406 3.199219 C 4.976562 3.242188 4.878906 3.269531 4.785156 3.304688 C 4.203125 3.503906 3.621094 3.703125 3.039062 3.902344 C 3.039062 3.75 3.039062 3.59375 3.039062 3.4375 C 3.042969 3.429688 3.039062 3.417969 3.046875 3.417969 C 3.488281 3.265625 3.929688 3.117188 4.371094 2.964844 C 4.433594 2.941406 4.496094 2.929688 4.546875 2.890625 C 4.570312 2.875 4.589844 2.847656 4.578125 2.820312 C 4.566406 2.796875 4.542969 2.785156 4.519531 2.777344 C 4.453125 2.75 4.382812 2.746094 4.3125 2.742188 C 4.199219 2.746094 4.089844 2.757812 3.984375 2.792969 C 3.667969 2.898438 3.355469 3.003906 3.039062 3.109375 C 3.039062 2.941406 3.039062 2.773438 3.039062 2.605469 C 3.269531 2.53125 3.507812 2.484375 3.746094 2.457031 Z M 3.746094 2.457031 "/>
<path style=" stroke:none;fill-rule:nonzero;fill:rgb(0%,0%,0%);fill-opacity:1;" d="M 5.039062 3.609375 C 5.105469 3.601562 5.179688 3.632812 5.21875 3.6875 C 5.265625 3.742188 5.273438 3.820312 5.242188 3.882812 C 5.207031 3.949219 5.136719 3.996094 5.058594 3.992188 C 4.988281 3.992188 4.921875 3.953125 4.886719 3.898438 C 4.855469 3.847656 4.851562 3.78125 4.875 3.726562 C 4.902344 3.664062 4.96875 3.617188 5.039062 3.609375 Z M 5.023438 3.644531 C 4.984375 3.65625 4.949219 3.675781 4.925781 3.707031 C 4.898438 3.742188 4.886719 3.792969 4.898438 3.835938 C 4.90625 3.875 4.933594 3.914062 4.96875 3.933594 C 5.027344 3.96875 5.105469 3.96875 5.15625 3.929688 C 5.210938 3.890625 5.238281 3.820312 5.21875 3.757812 C 5.207031 3.71875 5.175781 3.679688 5.136719 3.660156 C 5.101562 3.644531 5.0625 3.636719 5.023438 3.644531 Z M 5.023438 3.644531 "/>
<path style=" stroke:none;fill-rule:nonzero;fill:rgb(0%,0%,0%);fill-opacity:1;" d="M 4.976562 3.691406 C 5.011719 3.691406 5.046875 3.691406 5.082031 3.691406 C 5.101562 3.691406 5.125 3.695312 5.140625 3.710938 C 5.152344 3.726562 5.15625 3.75 5.152344 3.769531 C 5.148438 3.78125 5.136719 3.789062 5.128906 3.796875 C 5.136719 3.804688 5.144531 3.8125 5.148438 3.820312 C 5.152344 3.839844 5.148438 3.863281 5.152344 3.882812 C 5.15625 3.886719 5.160156 3.894531 5.164062 3.902344 C 5.148438 3.902344 5.132812 3.902344 5.117188 3.902344 C 5.109375 3.882812 5.117188 3.855469 5.109375 3.832031 C 5.105469 3.824219 5.097656 3.816406 5.085938 3.816406 C 5.0625 3.816406 5.039062 3.816406 5.015625 3.816406 C 5.011719 3.847656 5.015625 3.875 5.011719 3.902344 C 5 3.902344 4.988281 3.902344 4.976562 3.902344 C 4.972656 3.832031 4.976562 3.761719 4.976562 3.691406 Z M 5.015625 3.726562 C 5.015625 3.746094 5.015625 3.765625 5.015625 3.785156 C 5.035156 3.785156 5.058594 3.785156 5.078125 3.785156 C 5.089844 3.785156 5.101562 3.78125 5.109375 3.773438 C 5.117188 3.761719 5.117188 3.746094 5.109375 3.734375 C 5.105469 3.726562 5.09375 3.726562 5.082031 3.726562 C 5.058594 3.722656 5.035156 3.726562 5.015625 3.726562 Z M 5.015625 3.726562 "/>
</g>
</svg>
