<?xml version="1.0" encoding="UTF-8"?>
<svg xmlns="http://www.w3.org/2000/svg" xmlns:xlink="http://www.w3.org/1999/xlink" width="20pt" height="20pt" viewBox="0 0 20 20" version="1.1">
<g id="surface1">
<path style=" stroke:none;fill-rule:nonzero;fill:rgb(0%,0%,0%);fill-opacity:1;" d="M 6.589844 1.523438 C 5.519531 1.714844 4.660156 2.507812 4.390625 3.546875 C 4.292969 3.921875 4.285156 4.140625 4.296875 7.054688 C 4.300781 9.730469 4.304688 9.792969 4.347656 10 C 4.59375 11.113281 5.386719 11.90625 6.511719 12.167969 C 6.65625 12.203125 6.84375 12.207031 8.046875 12.214844 C 9.292969 12.222656 9.421875 12.222656 9.453125 12.1875 C 9.488281 12.15625 9.488281 11.726562 9.488281 6.863281 C 9.488281 3.261719 9.480469 1.5625 9.464844 1.53125 C 9.445312 1.492188 9.40625 1.488281 8.105469 1.492188 C 7.046875 1.492188 6.730469 1.5 6.589844 1.523438 Z M 8.601562 6.859375 L 8.601562 11.359375 L 7.695312 11.347656 C 6.863281 11.339844 6.773438 11.335938 6.605469 11.292969 C 5.890625 11.109375 5.359375 10.558594 5.210938 9.839844 C 5.164062 9.617188 5.164062 4.085938 5.207031 3.867188 C 5.34375 3.242188 5.777344 2.722656 6.359375 2.492188 C 6.652344 2.375 6.789062 2.359375 7.738281 2.359375 L 8.601562 2.355469 Z M 8.601562 6.859375 "/>
<path style=" stroke:none;fill-rule:nonzero;fill:rgb(0%,0%,0%);fill-opacity:1;" d="M 6.78125 3.714844 C 6.640625 3.738281 6.425781 3.847656 6.3125 3.945312 C 6.078125 4.148438 5.964844 4.4375 5.980469 4.773438 C 5.992188 4.949219 6.003906 4.996094 6.074219 5.136719 C 6.179688 5.351562 6.335938 5.511719 6.550781 5.617188 C 6.699219 5.691406 6.738281 5.699219 6.929688 5.707031 C 7.105469 5.714844 7.167969 5.707031 7.285156 5.667969 C 7.769531 5.503906 8.058594 5.035156 7.976562 4.554688 C 7.882812 3.984375 7.339844 3.601562 6.78125 3.714844 Z M 6.78125 3.714844 "/>
<path style=" stroke:none;fill-rule:nonzero;fill:rgb(0%,0%,0%);fill-opacity:1;" d="M 10.570312 1.503906 C 10.5625 1.511719 10.554688 3.921875 10.554688 6.859375 C 10.554688 11.703125 10.558594 12.195312 10.589844 12.207031 C 10.652344 12.230469 12.375 12.222656 12.589844 12.199219 C 13.492188 12.097656 14.285156 11.550781 14.71875 10.734375 C 14.777344 10.628906 14.847656 10.453125 14.886719 10.34375 C 15.027344 9.925781 15.023438 10.039062 15.023438 6.84375 C 15.023438 4.296875 15.019531 3.914062 14.988281 3.753906 C 14.765625 2.59375 13.882812 1.722656 12.722656 1.523438 C 12.570312 1.496094 12.328125 1.488281 11.554688 1.488281 C 11.023438 1.488281 10.578125 1.496094 10.570312 1.503906 Z M 12.945312 6.34375 C 13.292969 6.4375 13.574219 6.699219 13.691406 7.039062 C 13.765625 7.246094 13.761719 7.554688 13.6875 7.746094 C 13.554688 8.09375 13.285156 8.34375 12.945312 8.433594 C 12.390625 8.578125 11.796875 8.242188 11.636719 7.691406 C 11.585938 7.523438 11.589844 7.238281 11.644531 7.0625 C 11.8125 6.519531 12.390625 6.199219 12.945312 6.34375 Z M 12.945312 6.34375 "/>
<path style=" stroke:none;fill-rule:nonzero;fill:rgb(0%,0%,0%);fill-opacity:1;" d="M 16.652344 13.832031 C 16.308594 13.945312 16.101562 14.277344 16.160156 14.636719 C 16.195312 14.867188 16.328125 15.050781 16.535156 15.152344 C 16.8125 15.292969 17.105469 15.253906 17.328125 15.054688 C 17.496094 14.90625 17.566406 14.746094 17.566406 14.523438 C 17.566406 14.3125 17.503906 14.152344 17.363281 14.011719 C 17.1875 13.835938 16.875 13.757812 16.652344 13.832031 Z M 17.042969 14.15625 C 17.179688 14.222656 17.25 14.335938 17.261719 14.488281 C 17.277344 14.683594 17.191406 14.828125 17.015625 14.898438 C 16.71875 15.023438 16.378906 14.738281 16.464844 14.429688 C 16.5 14.292969 16.558594 14.214844 16.671875 14.15625 C 16.792969 14.101562 16.929688 14.097656 17.042969 14.15625 Z M 17.042969 14.15625 "/>
<path style=" stroke:none;fill-rule:nonzero;fill:rgb(0%,0%,0%);fill-opacity:1;" d="M 1.753906 14.523438 L 1.753906 15.203125 L 2.035156 15.1875 L 2.042969 14.761719 L 2.054688 14.332031 L 2.378906 14.765625 L 2.699219 15.199219 L 2.832031 15.195312 L 2.964844 15.1875 L 2.964844 13.855469 L 2.828125 13.847656 L 2.6875 13.84375 L 2.6875 14.71875 L 2.363281 14.28125 L 2.035156 13.84375 L 1.753906 13.84375 Z M 1.753906 14.523438 "/>
<path style=" stroke:none;fill-rule:nonzero;fill:rgb(0%,0%,0%);fill-opacity:1;" d="M 3.976562 14.523438 L 3.976562 15.199219 L 4.265625 15.199219 L 4.265625 13.84375 L 3.976562 13.84375 Z M 3.976562 14.523438 "/>
<path style=" stroke:none;fill-rule:nonzero;fill:rgb(0%,0%,0%);fill-opacity:1;" d="M 5.277344 13.875 C 5.269531 13.890625 5.269531 14.191406 5.269531 14.542969 L 5.277344 15.1875 L 5.417969 15.195312 L 5.554688 15.203125 L 5.554688 14.300781 L 5.890625 14.75 L 6.222656 15.199219 L 6.488281 15.199219 L 6.488281 13.84375 L 6.199219 13.84375 L 6.195312 14.269531 L 6.1875 14.699219 L 5.867188 14.269531 L 5.550781 13.84375 L 5.421875 13.84375 C 5.332031 13.84375 5.285156 13.851562 5.277344 13.875 Z M 5.277344 13.875 "/>
<path style=" stroke:none;fill-rule:nonzero;fill:rgb(0%,0%,0%);fill-opacity:1;" d="M 7.4375 13.859375 C 7.429688 13.867188 7.421875 13.933594 7.421875 14.003906 L 7.421875 14.132812 L 7.867188 14.132812 L 7.867188 15.199219 L 8.15625 15.199219 L 8.15625 14.132812 L 8.578125 14.132812 L 8.578125 13.84375 L 8.015625 13.84375 C 7.703125 13.84375 7.445312 13.851562 7.4375 13.859375 Z M 7.4375 13.859375 "/>
<path style=" stroke:none;fill-rule:nonzero;fill:rgb(0%,0%,0%);fill-opacity:1;" d="M 9.554688 14.523438 L 9.554688 15.199219 L 10.601562 15.199219 L 10.601562 14.933594 L 9.820312 14.933594 L 9.820312 14.621094 L 10.535156 14.621094 L 10.535156 14.378906 L 9.820312 14.378906 L 9.820312 14.109375 L 10.207031 14.105469 L 10.589844 14.101562 L 10.59375 13.972656 L 10.601562 13.84375 L 9.554688 13.84375 Z M 9.554688 14.523438 "/>
<path style=" stroke:none;fill-rule:nonzero;fill:rgb(0%,0%,0%);fill-opacity:1;" d="M 11.699219 13.875 C 11.691406 13.890625 11.691406 14.191406 11.691406 14.542969 L 11.699219 15.1875 L 11.839844 15.195312 L 11.976562 15.203125 L 11.976562 14.300781 L 12.3125 14.75 L 12.644531 15.199219 L 12.910156 15.199219 L 12.910156 13.84375 L 12.621094 13.84375 L 12.617188 14.269531 L 12.609375 14.699219 L 12.292969 14.269531 L 11.972656 13.84375 L 11.84375 13.84375 C 11.753906 13.84375 11.707031 13.851562 11.699219 13.875 Z M 11.699219 13.875 "/>
<path style=" stroke:none;fill-rule:nonzero;fill:rgb(0%,0%,0%);fill-opacity:1;" d="M 14.042969 14.519531 L 14.042969 15.199219 L 14.339844 15.199219 C 14.683594 15.199219 14.84375 15.167969 14.992188 15.0625 C 15.425781 14.765625 15.359375 14.128906 14.871094 13.90625 C 14.78125 13.863281 14.71875 13.855469 14.40625 13.847656 L 14.042969 13.839844 Z M 14.769531 14.175781 C 14.957031 14.261719 15.039062 14.5 14.945312 14.699219 C 14.875 14.84375 14.730469 14.910156 14.476562 14.910156 L 14.3125 14.910156 L 14.3125 14.132812 L 14.496094 14.132812 C 14.625 14.132812 14.703125 14.148438 14.769531 14.175781 Z M 14.769531 14.175781 "/>
<path style=" stroke:none;fill-rule:nonzero;fill:rgb(0%,0%,0%);fill-opacity:1;" d="M 13.375 15.800781 C 13.0625 15.84375 12.789062 15.988281 12.5625 16.230469 C 12.066406 16.761719 12.082031 17.574219 12.601562 18.089844 C 12.792969 18.28125 12.964844 18.382812 13.214844 18.445312 C 13.621094 18.550781 14.035156 18.464844 14.375 18.210938 C 14.503906 18.113281 14.675781 17.921875 14.664062 17.890625 C 14.65625 17.878906 14.566406 17.796875 14.457031 17.703125 L 14.261719 17.53125 L 14.203125 17.609375 C 13.914062 17.984375 13.335938 18.023438 13 17.6875 C 12.949219 17.640625 12.882812 17.550781 12.851562 17.484375 C 12.796875 17.378906 12.789062 17.34375 12.789062 17.144531 C 12.789062 16.953125 12.796875 16.90625 12.84375 16.8125 C 13.007812 16.472656 13.414062 16.285156 13.769531 16.390625 C 13.933594 16.4375 14.089844 16.535156 14.1875 16.652344 L 14.261719 16.742188 L 14.359375 16.664062 C 14.414062 16.621094 14.507812 16.539062 14.566406 16.484375 L 14.679688 16.382812 L 14.589844 16.277344 C 14.300781 15.925781 13.835938 15.746094 13.375 15.800781 Z M 13.375 15.800781 "/>
<path style=" stroke:none;fill-rule:nonzero;fill:rgb(0%,0%,0%);fill-opacity:1;" d="M 2.382812 15.890625 C 1.851562 16.027344 1.578125 16.382812 1.699219 16.78125 C 1.78125 17.078125 2.0625 17.222656 2.808594 17.355469 C 3.308594 17.445312 3.453125 17.519531 3.453125 17.675781 C 3.453125 17.785156 3.390625 17.863281 3.25 17.929688 C 3.128906 17.984375 3.101562 17.988281 2.800781 17.988281 C 2.441406 17.988281 2.300781 17.960938 2.039062 17.839844 C 1.957031 17.800781 1.882812 17.777344 1.878906 17.78125 C 1.851562 17.8125 1.640625 18.207031 1.648438 18.210938 C 1.671875 18.234375 2.027344 18.363281 2.171875 18.40625 C 2.417969 18.46875 2.941406 18.484375 3.207031 18.4375 C 3.703125 18.34375 3.949219 18.113281 3.972656 17.730469 C 3.992188 17.410156 3.902344 17.246094 3.628906 17.105469 C 3.433594 17.003906 3.265625 16.953125 2.832031 16.867188 C 2.457031 16.792969 2.351562 16.757812 2.273438 16.683594 C 2.203125 16.621094 2.203125 16.503906 2.277344 16.433594 C 2.4375 16.273438 3.007812 16.265625 3.453125 16.421875 C 3.527344 16.445312 3.59375 16.460938 3.601562 16.449219 C 3.617188 16.433594 3.777344 16.058594 3.777344 16.035156 C 3.777344 16.015625 3.4375 15.914062 3.246094 15.878906 C 2.988281 15.832031 2.589844 15.835938 2.382812 15.890625 Z M 2.382812 15.890625 "/>
<path style=" stroke:none;fill-rule:nonzero;fill:rgb(0%,0%,0%);fill-opacity:1;" d="M 4.277344 15.90625 C 4.28125 15.925781 4.4375 16.480469 4.621094 17.132812 C 4.808594 17.785156 4.960938 18.339844 4.96875 18.359375 C 4.980469 18.394531 5.015625 18.398438 5.289062 18.398438 L 5.597656 18.398438 L 5.621094 18.316406 C 5.84375 17.519531 6.0625 16.773438 6.074219 16.800781 C 6.082031 16.816406 6.1875 17.183594 6.308594 17.609375 L 6.523438 18.390625 L 6.835938 18.394531 L 7.148438 18.402344 L 7.5 17.164062 C 7.691406 16.480469 7.855469 15.910156 7.863281 15.894531 C 7.867188 15.875 7.808594 15.867188 7.589844 15.867188 L 7.3125 15.867188 L 7.28125 15.972656 C 7.265625 16.03125 7.15625 16.429688 7.042969 16.859375 C 6.929688 17.292969 6.832031 17.644531 6.820312 17.644531 C 6.816406 17.644531 6.710938 17.308594 6.589844 16.894531 C 6.472656 16.480469 6.351562 16.082031 6.328125 16.003906 L 6.285156 15.863281 L 5.832031 15.878906 L 5.574219 16.765625 C 5.429688 17.253906 5.3125 17.660156 5.3125 17.667969 C 5.308594 17.671875 5.207031 17.3125 5.089844 16.867188 C 4.972656 16.421875 4.859375 16.011719 4.847656 15.960938 L 4.820312 15.867188 L 4.542969 15.867188 C 4.285156 15.867188 4.265625 15.867188 4.277344 15.90625 Z M 4.277344 15.90625 "/>
<path style=" stroke:none;fill-rule:nonzero;fill:rgb(0%,0%,0%);fill-opacity:1;" d="M 8.488281 17.132812 L 8.488281 18.398438 L 9.066406 18.398438 L 9.0625 17.136719 L 9.054688 15.878906 L 8.773438 15.871094 L 8.488281 15.863281 Z M 8.488281 17.132812 "/>
<path style=" stroke:none;fill-rule:nonzero;fill:rgb(0%,0%,0%);fill-opacity:1;" d="M 9.667969 16.144531 L 9.667969 16.421875 L 10.464844 16.421875 L 10.464844 18.398438 L 11.023438 18.398438 L 11.023438 16.421875 L 11.417969 16.417969 L 11.8125 16.410156 L 11.8125 15.878906 L 10.738281 15.871094 L 9.667969 15.867188 Z M 9.667969 16.144531 "/>
<path style=" stroke:none;fill-rule:nonzero;fill:rgb(0%,0%,0%);fill-opacity:1;" d="M 15.246094 17.132812 L 15.246094 18.398438 L 15.777344 18.398438 L 15.777344 17.398438 L 16.957031 17.398438 L 16.957031 18.398438 L 17.488281 18.398438 L 17.484375 17.136719 L 17.476562 15.878906 L 17.21875 15.871094 L 16.957031 15.863281 L 16.957031 16.867188 L 15.777344 16.867188 L 15.777344 15.867188 L 15.246094 15.867188 Z M 15.246094 17.132812 "/>
</g>
</svg>
