<?xml version="1.0" encoding="UTF-8"?>
<svg xmlns="http://www.w3.org/2000/svg" xmlns:xlink="http://www.w3.org/1999/xlink" width="20pt" height="20pt" viewBox="0 0 20 20" version="1.1">
<g id="surface1">
<path style=" stroke:none;fill-rule:nonzero;fill:rgb(0%,0%,0%);fill-opacity:1;" d="M 9.011719 19.9375 C 7.46875 19.789062 5.910156 19.238281 4.566406 18.363281 C 3.441406 17.632812 3.1875 17.332031 3.1875 16.730469 C 3.1875 15.527344 4.519531 13.414062 6.792969 11.011719 C 8.082031 9.644531 9.878906 8.042969 10.074219 8.085938 C 10.453125 8.167969 13.476562 11.109375 14.605469 12.492188 C 16.394531 14.683594 17.21875 16.476562 16.800781 17.273438 C 16.484375 17.882812 14.511719 19.066406 13.0625 19.523438 C 11.871094 19.898438 10.304688 20.058594 9.011719 19.9375 Z M 1.671875 15.480469 C 0.738281 14.050781 0.265625 12.644531 0.0390625 10.609375 C -0.0390625 9.9375 -0.0117188 9.550781 0.207031 8.171875 C 0.480469 6.453125 1.464844 4.464844 2.640625 3.242188 C 3.144531 2.722656 3.191406 2.707031 3.800781 2.914062 C 4.546875 3.164062 5.339844 3.710938 6.570312 4.820312 L 7.289062 5.46875 L 6.898438 5.949219 C 5.074219 8.179688 3.152344 11.34375 2.429688 13.300781 C 2.035156 14.363281 1.875 15.433594 2.046875 15.875 C 2.160156 16.175781 2.054688 16.066406 1.671875 15.480469 Z M 18.066406 15.722656 C 18.15625 15.273438 18.039062 14.449219 17.765625 13.617188 C 17.175781 11.8125 15.195312 8.460938 13.375 6.183594 L 12.804688 5.464844 L 13.421875 4.898438 C 14.230469 4.15625 14.792969 3.714844 15.398438 3.339844 C 15.875 3.039062 16.558594 2.777344 16.851562 2.777344 C 17.035156 2.777344 17.671875 3.4375 18.1875 4.15625 C 18.984375 5.273438 19.570312 6.621094 19.867188 8.03125 C 20.058594 8.9375 20.074219 10.882812 19.894531 11.789062 C 19.75 12.535156 19.445312 13.5 19.144531 14.152344 C 18.921875 14.644531 18.363281 15.597656 18.121094 15.90625 C 17.996094 16.066406 17.996094 16.066406 18.066406 15.722656 Z M 9.175781 2.4375 C 8.339844 2.011719 7.042969 1.558594 6.328125 1.433594 C 6.078125 1.390625 5.652344 1.367188 5.378906 1.378906 C 4.789062 1.410156 4.816406 1.378906 5.761719 0.933594 C 6.546875 0.5625 7.203125 0.34375 8.09375 0.160156 C 9.097656 -0.0507812 10.980469 -0.0546875 11.964844 0.152344 C 13.03125 0.378906 14.285156 0.84375 14.992188 1.277344 L 15.203125 1.40625 L 14.71875 1.382812 C 13.761719 1.332031 12.367188 1.71875 10.867188 2.445312 C 10.417969 2.664062 10.023438 2.839844 9.996094 2.835938 C 9.96875 2.832031 9.597656 2.652344 9.175781 2.4375 Z M 9.175781 2.4375 "/>
</g>
</svg>
